<svg version="1.1" id="Layer_1" xmlns="http://www.w3.org/2000/svg" xmlns:xlink="http://www.w3.org/1999/xlink" x="0px" y="0px"
	 width="100%" viewBox="0 0 225 225" enable-background="new 0 0 225 225" xml:space="preserve">
<path fill="#FFFFFF" opacity="1.000000" stroke="none" 
	d="
M152.000000,226.000000 
	C101.333336,226.000000 51.166672,226.000000 1.000007,226.000000 
	C1.000005,151.000000 1.000005,76.000015 1.000002,1.000017 
	C75.999992,1.000011 150.999985,1.000011 225.999969,1.000006 
	C225.999985,75.999985 225.999985,150.999969 226.000000,225.999969 
	C201.500000,226.000000 177.000000,226.000000 152.000000,226.000000 
M190.032486,33.967052 
	C190.032486,33.967052 190.113129,33.958786 189.932297,33.472015 
	C189.632996,33.360458 189.333679,33.248901 188.103271,32.987541 
	C173.059113,33.038040 158.014938,33.088535 142.470398,33.108810 
	C142.368332,33.393364 142.266266,33.677917 142.027084,34.895496 
	C142.027084,42.144085 142.027084,49.392673 142.027084,57.006664 
	C150.414902,57.006664 158.198120,57.006664 166.024841,57.942089 
	C166.016327,64.590439 165.898209,71.241951 166.089615,77.884544 
	C166.129013,79.251724 167.315491,81.748192 167.987640,81.753105 
	C174.014130,81.797096 180.043839,81.400017 186.863937,81.057487 
	C187.918991,80.993065 188.974060,80.928642 190.541000,80.890488 
	C190.657562,80.602280 190.774109,80.314079 191.050369,79.097130 
	C190.997650,64.389572 190.944931,49.682011 190.907867,34.445396 
	C190.618164,34.259010 190.328461,34.072620 190.032486,33.967052 
M90.492661,184.997101 
	C90.492661,184.997101 90.975670,184.913864 91.904694,185.071655 
	C107.277908,185.019058 122.651123,184.966461 138.668427,185.026505 
	C139.099884,184.981445 139.531326,184.936386 140.895370,185.033783 
	C147.161407,185.045151 153.430130,184.951431 159.692368,185.111542 
	C162.898300,185.193497 164.131927,183.966064 164.040390,180.763275 
	C163.852051,174.174484 163.891647,167.579147 163.932648,160.501007 
	C163.932648,160.501007 163.834579,160.016083 163.967834,159.085297 
	C163.929230,143.713165 163.890640,128.341049 163.881836,112.467155 
	C163.596390,112.350311 163.310928,112.233467 162.093613,111.981636 
	C155.059479,112.026894 148.025345,112.072144 140.513504,111.975098 
	C140.513504,111.975098 140.038208,111.824890 139.831497,111.316292 
	C139.504807,110.882378 139.178116,110.448463 138.973373,109.082573 
	C138.973373,101.825836 138.973373,94.569099 138.973373,86.777412 
	C130.293732,86.777412 122.241241,86.777412 113.816452,86.777412 
	C113.816452,78.478584 113.816452,70.727112 113.816452,62.697910 
	C111.600983,62.697910 109.780899,62.697910 107.314476,62.210743 
	C101.539009,62.375980 95.763542,62.541214 89.465187,62.704414 
	C89.301674,62.764759 89.138153,62.825108 88.059608,62.675701 
	C72.712120,62.756191 57.364635,62.836685 41.451118,62.918964 
	C41.371216,63.264683 41.291309,63.610405 41.071373,64.889420 
	C41.106907,104.603142 41.142441,144.316864 41.098995,184.557632 
	C41.394577,184.679794 41.690159,184.801956 42.912914,185.085022 
	C57.947739,185.031372 72.982559,184.977737 88.683380,185.051422 
	C89.128609,184.991257 89.573830,184.931091 90.492661,184.997101 
z"/>
<path fill="#4C4C9B" opacity="1.000000" stroke="none" 
	d="
M88.017387,184.924103 
	C72.982559,184.977737 57.947739,185.031372 42.367172,184.813278 
	C41.662487,184.301285 41.448002,184.130966 41.177975,184.030594 
	C41.142441,144.316864 41.106907,104.603142 41.327347,64.294807 
	C41.798275,63.478168 41.942886,63.217163 42.017151,62.917175 
	C57.364635,62.836685 72.712120,62.756191 88.611855,63.010880 
	C89.335312,63.649223 89.585526,63.857426 89.989204,63.940536 
	C90.063652,63.910416 90.212349,63.971146 90.129959,64.435020 
	C90.047562,72.156807 90.047562,79.414719 90.047562,87.283165 
	C81.715675,87.651199 74.028107,87.990776 66.208527,88.336182 
	C66.208527,96.255562 66.208527,103.935265 66.208527,112.047997 
	C74.358665,112.047997 82.136284,112.047997 89.953629,112.510620 
	C89.943008,119.994568 89.892670,127.015884 89.645981,134.161423 
	C89.219788,134.511139 89.078827,134.782761 88.747406,135.418976 
	C82.339317,135.825989 76.202003,135.764832 70.088272,136.115189 
	C68.674919,136.196182 66.192917,137.634247 66.153709,138.532959 
	C65.832222,145.901947 65.972382,153.291077 65.972382,160.842911 
	C74.499374,160.842911 82.273094,160.842911 90.290527,160.921326 
	C90.695778,161.054825 90.857323,161.109909 90.828011,161.528809 
	C90.383064,169.275101 90.128967,176.657608 89.599571,184.046631 
	C88.888641,184.343475 88.453011,184.633789 88.017387,184.924103 
z"/>
<path fill="#3AB8D4" opacity="1.000000" stroke="none" 
	d="
M89.874878,184.040100 
	C90.128967,176.657608 90.383064,169.275101 91.290611,161.461060 
	C97.920609,161.019547 103.905693,160.812195 109.870644,161.070297 
	C113.722786,161.236969 115.267868,160.105682 115.079491,156.033234 
	C114.788330,149.738724 115.023888,143.419861 115.499802,137.064987 
	C121.995705,136.718384 128.027863,136.418121 134.456177,136.077286 
	C135.909927,135.973450 136.967529,135.910217 138.282135,135.852997 
	C138.639465,135.561951 138.739822,135.264893 138.925858,134.989807 
	C139.011520,135.011765 139.184738,135.047653 139.563416,134.922760 
	C140.294052,133.292618 140.920975,131.792603 140.949631,130.281219 
	C141.064362,124.228531 140.993469,118.172310 140.991211,112.117401 
	C148.025345,112.072144 155.059479,112.026894 162.645859,112.235641 
	C163.363037,112.721779 163.581024,112.881531 163.852051,112.968918 
	C163.890640,128.341049 163.929230,143.713165 163.728409,159.639038 
	C163.271439,160.343796 163.107269,160.539551 162.530701,160.828400 
	C154.514709,160.876755 146.964523,160.876755 139.106644,160.876755 
	C139.106644,169.087585 139.106644,176.512604 138.877747,184.042297 
	C138.440659,184.402603 138.232498,184.658234 138.024338,184.913879 
	C122.651123,184.966461 107.277908,185.019058 91.354004,184.798065 
	C90.638039,184.284531 90.422935,184.103973 90.087830,184.000092 
	C90.017647,184.017395 89.874878,184.040100 89.874878,184.040100 
z"/>
<path fill="#E3823F" opacity="1.000000" stroke="none" 
	d="
M89.913902,112.048004 
	C82.136284,112.047997 74.358665,112.047997 66.208527,112.047997 
	C66.208527,103.935265 66.208527,96.255562 66.208527,88.336182 
	C74.028107,87.990776 81.715675,87.651199 90.047562,87.283165 
	C90.047562,79.414719 90.047562,72.156807 90.582748,64.444565 
	C93.611900,63.993378 96.119720,64.163269 98.596367,63.957691 
	C101.731102,63.697487 104.840492,63.131828 107.960808,62.697910 
	C109.780899,62.697910 111.600983,62.697910 113.816452,62.697910 
	C113.816452,70.727112 113.816452,78.478584 113.816452,86.777412 
	C122.241241,86.777412 130.293732,86.777412 138.973373,86.777412 
	C138.973373,94.569099 138.973373,101.825836 138.701431,109.713730 
	C138.288223,110.850563 138.146942,111.356239 137.537079,111.894745 
	C121.350288,111.967712 105.632095,112.007858 89.913902,112.048004 
z"/>
<path fill="#DC485A" opacity="1.000000" stroke="none" 
	d="
M190.029114,80.864227 
	C188.974060,80.928642 187.918991,80.993065 186.186432,80.774353 
	C180.897751,80.326630 176.285278,80.012909 171.675842,80.052551 
	C168.844604,80.076904 167.884232,79.004967 167.960739,76.247360 
	C168.103195,71.112694 168.133011,65.965347 167.907120,60.836609 
	C167.849747,59.534210 166.654007,58.281956 165.981339,57.006660 
	C158.198120,57.006664 150.414902,57.006664 142.027084,57.006664 
	C142.027084,49.392673 142.027084,42.144085 142.274368,34.340038 
	C142.746307,33.621548 142.896027,33.406364 142.970779,33.139034 
	C158.014938,33.088535 173.059113,33.038040 188.691620,33.263496 
	C189.514725,33.764557 189.792450,33.904335 190.113129,33.958786 
	C190.113129,33.958786 190.032486,33.967052 190.112595,34.155281 
	C190.340164,34.648846 190.573334,34.859161 190.892212,34.974453 
	C190.944931,49.682011 190.997650,64.389572 190.780411,79.647568 
	C190.272049,80.363747 190.111603,80.585823 190.029114,80.864227 
z"/>
<path fill="#935A9F" opacity="1.000000" stroke="none" 
	d="
M139.106644,183.937637 
	C139.106644,176.512604 139.106644,169.087585 139.106644,160.876755 
	C146.964523,160.876755 154.514709,160.876755 162.735077,160.904144 
	C163.405258,160.931519 163.837433,160.986511 163.837433,160.986511 
	C163.891647,167.579147 163.852051,174.174484 164.040390,180.763275 
	C164.131927,183.966064 162.898300,185.193497 159.692368,185.111542 
	C153.430130,184.951431 147.161407,185.045151 140.365936,184.743805 
	C139.660370,184.186798 139.417084,184.014740 139.106644,183.937637 
z"/>
<path fill="#DA364C" opacity="1.000000" stroke="none" 
	d="
M166.003082,57.474373 
	C166.654007,58.281956 167.849747,59.534210 167.907120,60.836609 
	C168.133011,65.965347 168.103195,71.112694 167.960739,76.247360 
	C167.884232,79.004967 168.844604,80.076904 171.675842,80.052551 
	C176.285278,80.012909 180.897751,80.326630 185.790771,80.811920 
	C180.043839,81.400017 174.014130,81.797096 167.987640,81.753105 
	C167.315491,81.748192 166.129013,79.251724 166.089615,77.884544 
	C165.898209,71.241951 166.016327,64.590439 166.003082,57.474373 
z"/>
<path fill="#2BB6D5" opacity="1.000000" stroke="none" 
	d="
M140.752350,112.046249 
	C140.993469,118.172310 141.064362,124.228531 140.949631,130.281219 
	C140.920975,131.792603 140.294052,133.292618 139.497696,134.455078 
	C138.983276,127.066696 138.913239,120.021111 138.910172,112.757935 
	C138.977142,112.540344 139.065231,112.093643 139.311646,112.037918 
	C139.718124,111.929756 139.878174,111.877327 140.038208,111.824890 
	C140.038208,111.824890 140.513504,111.975098 140.752350,112.046249 
z"/>
<path fill="#EBC5AD" opacity="1.000000" stroke="none" 
	d="
M107.637642,62.454327 
	C104.840492,63.131828 101.731102,63.697487 98.596367,63.957691 
	C96.119720,64.163269 93.611900,63.993378 90.665138,63.980690 
	C90.212349,63.971146 90.063652,63.910416 90.019905,63.625427 
	C89.980133,63.129112 89.984100,62.917778 89.988075,62.706444 
	C95.763542,62.541214 101.539009,62.375980 107.637642,62.454327 
z"/>
<path fill="#EA9B44" opacity="1.000000" stroke="none" 
	d="
M139.934845,111.570587 
	C139.878174,111.877327 139.718124,111.929756 139.044525,112.015457 
	C138.351974,112.052559 138.172989,112.056396 137.995605,112.010574 
	C137.997223,111.960922 138.005676,111.861923 138.005676,111.861923 
	C138.146942,111.356239 138.288223,110.850563 138.640457,110.179710 
	C139.178116,110.448463 139.504807,110.882378 139.934845,111.570587 
z"/>
<path fill="#22B3D1" opacity="1.000000" stroke="none" 
	d="
M138.877747,184.042297 
	C139.417084,184.014740 139.660370,184.186798 139.899643,184.672577 
	C139.531326,184.936386 139.099884,184.981445 138.346375,184.970184 
	C138.232498,184.658234 138.440659,184.402603 138.877747,184.042297 
z"/>
<path fill="#414197" opacity="1.000000" stroke="none" 
	d="
M88.350388,184.987762 
	C88.453011,184.633789 88.888641,184.343475 89.599579,184.046631 
	C89.874878,184.040100 90.017647,184.017395 90.033875,184.219116 
	C90.050095,184.420853 90.019058,184.870911 90.019058,184.870911 
	C89.573830,184.931091 89.128609,184.991257 88.350388,184.987762 
z"/>
<path fill="#DA364C" opacity="1.000000" stroke="none" 
	d="
M142.720581,33.123924 
	C142.896027,33.406364 142.746307,33.621548 142.342926,33.873524 
	C142.266266,33.677917 142.368332,33.393364 142.720581,33.123924 
z"/>
<path fill="#2BB6D5" opacity="1.000000" stroke="none" 
	d="
M163.866943,112.718033 
	C163.581024,112.881531 163.363037,112.721779 163.111786,112.303139 
	C163.310928,112.233467 163.596390,112.350311 163.866943,112.718033 
z"/>
<path fill="#DA364C" opacity="1.000000" stroke="none" 
	d="
M190.285065,80.877357 
	C190.111603,80.585823 190.272049,80.363747 190.700562,80.111938 
	C190.774109,80.314079 190.657562,80.602280 190.285065,80.877357 
z"/>
<path fill="#DA364C" opacity="1.000000" stroke="none" 
	d="
M190.022705,33.715401 
	C189.792450,33.904335 189.514725,33.764557 189.157166,33.338394 
	C189.333679,33.248901 189.632996,33.360458 190.022705,33.715401 
z"/>
<path fill="#4DA8CB" opacity="1.000000" stroke="none" 
	d="
M163.885040,160.743759 
	C163.837433,160.986511 163.405258,160.931519 163.200867,160.855789 
	C163.107269,160.539551 163.271439,160.343796 163.661774,160.104431 
	C163.834579,160.016083 163.932648,160.501007 163.885040,160.743759 
z"/>
<path fill="#414197" opacity="1.000000" stroke="none" 
	d="
M89.726631,62.705429 
	C89.984100,62.917778 89.980133,63.129112 89.945457,63.655552 
	C89.585526,63.857426 89.335312,63.649223 89.069366,63.115761 
	C89.138153,62.825108 89.301674,62.764759 89.726631,62.705429 
z"/>
<path fill="#414197" opacity="1.000000" stroke="none" 
	d="
M41.138485,184.294113 
	C41.448002,184.130966 41.662487,184.301285 41.903587,184.732819 
	C41.690159,184.801956 41.394577,184.679794 41.138485,184.294113 
z"/>
<path fill="#DA364C" opacity="1.000000" stroke="none" 
	d="
M190.900040,34.709923 
	C190.573334,34.859161 190.340164,34.648846 190.115723,34.114868 
	C190.328461,34.072620 190.618164,34.259010 190.900040,34.709923 
z"/>
<path fill="#22B3D1" opacity="1.000000" stroke="none" 
	d="
M90.255859,184.934006 
	C90.019058,184.870911 90.050095,184.420853 90.104050,184.201813 
	C90.422935,184.103973 90.638039,184.284531 90.889496,184.719162 
	C90.975670,184.913864 90.492661,184.997101 90.255859,184.934006 
z"/>
<path fill="#414197" opacity="1.000000" stroke="none" 
	d="
M41.734135,62.918068 
	C41.942886,63.217163 41.798275,63.478168 41.397362,63.828156 
	C41.291309,63.610405 41.371216,63.264683 41.734135,62.918068 
z"/>
<path fill="#F9CF52" opacity="1.000000" stroke="none" 
	d="
M138.843201,112.975517 
	C138.913239,120.021111 138.983276,127.066696 139.119019,134.579971 
	C139.184738,135.047653 139.011520,135.011765 138.750397,135.096283 
	C138.269547,135.357544 138.114853,135.579605 138.025146,135.846985 
	C136.967529,135.910217 135.909927,135.973450 134.172272,135.760193 
	C128.079010,135.330078 122.665443,135.094559 117.253014,135.118347 
	C116.511131,135.121613 115.774918,136.415161 115.036072,137.111328 
	C115.023888,143.419861 114.788330,149.738724 115.079491,156.033234 
	C115.267868,160.105682 113.722786,161.236969 109.870644,161.070297 
	C103.905693,160.812195 97.920609,161.019547 91.481461,161.097260 
	C90.857323,161.109909 90.695778,161.054825 90.275253,160.464661 
	C89.966156,151.598053 89.916046,143.266495 89.905411,134.709320 
	C89.944878,134.483704 89.842331,134.037201 89.842331,134.037201 
	C89.892670,127.015884 89.943008,119.994568 89.953629,112.510628 
	C105.632095,112.007858 121.350288,111.967712 137.537079,111.894745 
	C138.005676,111.861923 137.997223,111.960922 138.089294,112.202843 
	C138.346146,112.691277 138.566757,112.868195 138.843201,112.975517 
z"/>
<path fill="#90BF56" opacity="1.000000" stroke="none" 
	d="
M89.865944,134.934952 
	C89.916046,143.266495 89.966156,151.598053 90.031540,160.386261 
	C82.273094,160.842911 74.499374,160.842911 65.972382,160.842911 
	C65.972382,153.291077 65.832222,145.901947 66.153709,138.532959 
	C66.192917,137.634247 68.674919,136.196182 70.088272,136.115189 
	C76.202003,135.764832 82.339317,135.825989 88.956711,135.375183 
	C89.445374,135.012894 89.865944,134.934952 89.865944,134.934952 
z"/>
<path fill="#414197" opacity="1.000000" stroke="none" 
	d="
M89.905411,134.709320 
	C89.865944,134.934952 89.445374,135.012894 89.236069,135.056702 
	C89.078827,134.782761 89.219788,134.511139 89.645981,134.161423 
	C89.842331,134.037201 89.944878,134.483704 89.905411,134.709320 
z"/>
<path fill="#FED04A" opacity="1.000000" stroke="none" 
	d="
M115.499802,137.064987 
	C115.774918,136.415161 116.511131,135.121613 117.253014,135.118347 
	C122.665443,135.094559 128.079010,135.330078 133.776123,135.800781 
	C128.027863,136.418121 121.995705,136.718384 115.499802,137.064987 
z"/>
<path fill="#FED04A" opacity="1.000000" stroke="none" 
	d="
M138.282135,135.852997 
	C138.114853,135.579605 138.269547,135.357544 138.664734,135.074310 
	C138.739822,135.264893 138.639465,135.561951 138.282135,135.852997 
z"/>
<path fill="#FED04A" opacity="1.000000" stroke="none" 
	d="
M138.910172,112.757935 
	C138.566757,112.868195 138.346146,112.691277 138.087677,112.252495 
	C138.172989,112.056396 138.351974,112.052559 138.798096,112.071182 
	C139.065231,112.093643 138.977142,112.540344 138.910172,112.757935 
z"/>
</svg>